<svg width="80" height="80" viewBox="0 0 80 80" fill="none" xmlns="http://www.w3.org/2000/svg">
<path d="M46.29 66.8163C46.29 66.8163 66.2503 58.723 72.4973 57.3563C78.6163 56.0195 80 61.1599 80 61.1599L64.5447 66.2811L46.29 66.8163Z" fill="#0552BE"/>
<path d="M60.6936 53.7638L63.7403 52.5272C69.9723 50.2757 72.1022 54.6273 72.1022 54.6273L62.0368 60.7399L46.2916 66.8162L38.7185 66.942L38.6226 61.162L48.3703 59.7613L53.6066 56.8915L60.6936 53.7638Z" fill="#044063"/>
<path d="M43.8062 19.1474L47.0703 22.4115L50.3345 19.1474V19.1324C53.1275 16.3394 57.6539 16.3394 60.4469 19.1324C63.2399 21.9254 63.2399 26.4518 60.4469 29.2448L47.0618 42.6298L33.6768 29.2448C30.8838 26.4518 30.8838 21.9254 33.6768 19.1324C36.4698 16.3394 40.9961 16.3394 43.7891 19.1324" fill="#2CE080"/>
<path d="M3.07112 65.294L11.7763 67.9314L28.1739 72.5004C31.5404 73.4385 35.0413 73.7988 38.5272 73.5664L79.2601 70.8416C79.2601 70.8416 79.5607 65.9976 74.1389 65.5456L41.2136 66.9016C40.3757 66.9165 38.8427 66.36 38.9515 64.7397C39.0432 63.3496 40.655 62.8592 41.9214 62.3773C41.9214 62.3773 48.6651 61.209 53.9078 59.5183C59.2017 57.8105 56.4962 53.3012 56.4962 53.3012L41.446 54.6337L22.1573 54.945L2.85791 44.6131" fill="#0365F2"/>
<path d="M5.21484 67.6455L5.21484 44.0741H0.000572681L0.000572681 67.6455H5.21484Z" fill="#03314B"/>
</svg>
